<svg xmlns="http://www.w3.org/2000/svg" viewBox="0 0 64 64"><defs><filter id="i1" x="-50%" y="-50%" width="200%" height="200%"><feGaussianBlur stdDeviation="1.6"/></filter><linearGradient id="i2" x1="0" y1="0" x2="0" y2="1"><stop offset="0" stop-color="#655CD1"/><stop offset="1" stop-color="#2C2293"/></linearGradient></defs><rect x="3" y="5" width="58" height="58" rx="15" fill="#000" opacity=".18" filter="url(#i1)"/><rect x="3" y="2" width="58" height="58" rx="15" fill="url(#i2)"/><rect x="7" y="5" width="50" height="22" rx="11" fill="#FFFFFF" opacity=".14"/><g transform="translate(0 -1)"><path d="M21 13 h15 l9 9 v24 a3 3 0 0 1 -3 3 h-21 a3 3 0 0 1 -3 -3 v-30 a3 3 0 0 1 3 -3 z" fill="#FFFFFF"/><path d="M36 13 v9 h9" fill="none" stroke="#000" stroke-opacity=".18" stroke-width="2" stroke-linejoin="round"/><rect x="23" y="27" width="18" height="3" rx="1.5" fill="#000" opacity=".18"/><rect x="23" y="33" width="18" height="3" rx="1.5" fill="#000" opacity=".18"/><rect x="23" y="39" width="11" height="3" rx="1.5" fill="#FF9A3D"/></g></svg>
